<svg width="16" height="16" viewBox="0 0 16 16" fill="none" xmlns="http://www.w3.org/2000/svg">
<path fill-rule="evenodd" clip-rule="evenodd" d="M1.30175 11.9684C2.13524 11.1349 3.2657 10.6666 4.44444 10.6666H11.5556C12.7343 10.6666 13.8648 11.1349 14.6983 11.9684C15.5317 12.8019 16 13.9323 16 15.1111C16 15.602 15.602 16 15.1111 16C14.6202 16 14.2222 15.602 14.2222 15.1111C14.2222 14.4038 13.9413 13.7256 13.4412 13.2255C12.9411 12.7254 12.2628 12.4444 11.5556 12.4444H4.44444C3.7372 12.4444 3.05892 12.7254 2.55883 13.2255C2.05873 13.7256 1.77778 14.4038 1.77778 15.1111C1.77778 15.602 1.37981 16 0.888889 16C0.397969 16 0 15.602 0 15.1111C0 13.9323 0.468253 12.8019 1.30175 11.9684Z" fill="white"/>
<path fill-rule="evenodd" clip-rule="evenodd" d="M1.30175 11.9684C2.13524 11.1349 3.2657 10.6666 4.44444 10.6666H11.5556C12.7343 10.6666 13.8648 11.1349 14.6983 11.9684C15.5317 12.8019 16 13.9323 16 15.1111C16 15.602 15.602 16 15.1111 16C14.6202 16 14.2222 15.602 14.2222 15.1111C14.2222 14.4038 13.9413 13.7256 13.4412 13.2255C12.9411 12.7254 12.2628 12.4444 11.5556 12.4444H4.44444C3.7372 12.4444 3.05892 12.7254 2.55883 13.2255C2.05873 13.7256 1.77778 14.4038 1.77778 15.1111C1.77778 15.602 1.37981 16 0.888889 16C0.397969 16 0 15.602 0 15.1111C0 13.9323 0.468253 12.8019 1.30175 11.9684Z" fill="#4E5D78"/>
<path fill-rule="evenodd" clip-rule="evenodd" d="M8.00011 1.77778C6.52735 1.77778 5.33344 2.97169 5.33344 4.44444C5.33344 5.9172 6.52735 7.11111 8.00011 7.11111C9.47287 7.11111 10.6668 5.9172 10.6668 4.44444C10.6668 2.97169 9.47287 1.77778 8.00011 1.77778ZM3.55566 4.44444C3.55566 1.98985 5.54551 0 8.00011 0C10.4547 0 12.4446 1.98985 12.4446 4.44444C12.4446 6.89904 10.4547 8.88889 8.00011 8.88889C5.54551 8.88889 3.55566 6.89904 3.55566 4.44444Z" fill="white"/>
<path fill-rule="evenodd" clip-rule="evenodd" d="M8.00011 1.77778C6.52735 1.77778 5.33344 2.97169 5.33344 4.44444C5.33344 5.9172 6.52735 7.11111 8.00011 7.11111C9.47287 7.11111 10.6668 5.9172 10.6668 4.44444C10.6668 2.97169 9.47287 1.77778 8.00011 1.77778ZM3.55566 4.44444C3.55566 1.98985 5.54551 0 8.00011 0C10.4547 0 12.4446 1.98985 12.4446 4.44444C12.4446 6.89904 10.4547 8.88889 8.00011 8.88889C5.54551 8.88889 3.55566 6.89904 3.55566 4.44444Z" fill="#4E5D78"/>
</svg>
